<?xml version="1.0" encoding="UTF-8"?>
<svg id="Capa_1" data-name="Capa 1" xmlns="http://www.w3.org/2000/svg" version="1.1" viewBox="0 0 50.8 48">
  <defs>
    <style>
      .cls-1 {
        fill: #a238ff;
        fill-rule: evenodd;
        stroke-width: 0px;
      }
    </style>
  </defs>
  <path class="cls-1" d="M41.66,7.32c.44-2.57,1.1-4.19,1.82-4.2h0c1.35,0,2.44,5.62,2.44,12.55s-1.09,12.55-2.44,12.55c-.55,0-1.06-.95-1.47-2.55-.65,5.85-1.99,9.87-3.55,9.87-1.21,0-2.29-2.42-3.01-6.23-.5,7.25-1.74,12.39-3.2,12.39-.92,0-1.75-2.04-2.37-5.36-.74,6.85-2.46,11.65-4.46,11.65s-3.72-4.8-4.46-11.65c-.61,3.32-1.45,5.36-2.37,5.36-1.46,0-2.7-5.14-3.2-12.39-.73,3.81-1.81,6.23-3.01,6.23-1.56,0-2.9-4.02-3.55-9.87-.41,1.6-.92,2.55-1.47,2.55-1.35,0-2.44-5.62-2.44-12.55S5.98,3.13,7.33,3.13c.72,0,1.37,1.62,1.82,4.2C9.87,2.88,11.03,0,12.35,0,13.92,0,15.28,4.08,15.92,10c.63-4.31,1.58-7.06,2.65-7.06,1.5,0,2.77,5.41,3.24,12.95.89-3.87,2.17-6.29,3.59-6.29s2.7,2.43,3.59,6.29c.47-7.54,1.74-12.95,3.24-12.95,1.07,0,2.02,2.75,2.65,7.06C35.53,4.08,36.88,0,38.45,0,39.77,0,40.94,2.89,41.66,7.32ZM1.4,14.44c0-3.1.62-5.61,1.38-5.61s1.38,2.51,1.38,5.61-.62,5.61-1.38,5.61-1.38-2.51-1.38-5.61ZM46.63,14.44c0-3.1.62-5.61,1.38-5.61s1.38,2.51,1.38,5.61-.62,5.61-1.38,5.61-1.38-2.51-1.38-5.61Z"/>
</svg>