<?xml version="1.0" encoding="UTF-8"?>
<svg id="Capa_1" data-name="Capa 1" xmlns="http://www.w3.org/2000/svg" version="1.1" viewBox="0 0 1200 1200">
  <defs>
    <style>
      .cls-1 {
        fill: #fff;
        stroke-width: 0px;
      }
    </style>
  </defs>
  <path class="cls-1" d="M620.22,861.94c-2.09,9.28,4.02,14.15,10.02,20.3,6-5.38,11.79-10.61,19.85-17.86-4.65-3.6-8.24-6.33-11.76-9.14-2.44-1.94-5.05-2.84-7.52-2.84-4.89,0-9.23,3.52-10.58,9.54M592,853.15c-2.79,2.54-5.05,5.66-7.89,8.96,3.15,2.89,5.92,5.43,9.4,8.62,2.86-4.06,6.27-7.21,7.35-11.02.76-2.68-1.67-6.26-2.67-9.44-2.09.93-4.57,1.42-6.19,2.88M567.47,844.57c-2.64,2.11-5.61,4.12-7.36,6.89-.89,1.39.19,4.36.98,6.39.44,1.12,2.13,1.75,4.14,3.28,2.06-2.98,4.38-5.3,5.37-8.1.73-2.06-.08-4.78-.6-7.12-.12-.57-1.76-1.39-2.36-1.39-.08,0-.14.01-.17.04M1011.68,679.93l18.54,27.99,28.64-17.5-18.49-28.2-28.69,17.7ZM140.08,688.55l28.51,18.01,18.78-28-28.47-17.8-18.82,27.8ZM310.35,517.67c.53,1.02.8,2.52,1.63,2.95,4.95,2.59,10.01,4.99,15.08,7.32,5.16,2.38,10.39,4.6,15.58,6.89.47-.89.95-1.77,1.42-2.66-10.37-5.26-20.73-10.56-31.16-15.7-.05-.02-.12-.04-.19-.04-.59,0-1.59.86-2.36,1.24M675.66,586.78c8.14,11.99,10.69,25.2,10.5,40.81-7.45-12.92-11.43-25.65-10.5-40.81M660.25,583.02c-7.61,14.1-17.93,24.95-31.58,33.37,7.73-13.96,17.98-24.85,31.58-33.37M687.07,573.93c14.9-1.55,28.36.98,42,7.98-2.87.3-5.69.44-8.44.44h-.07c-12.15,0-23.17-2.87-33.48-8.41M614.08,559.72c15.6-1.59,29.33,1.16,42,7.98-2.81.29-5.58.44-8.3.44-11.69,0-22.64-2.73-33.7-8.42M714.48,525.23c-7.73,13.96-17.97,24.85-31.57,33.37,7.61-14.1,17.93-24.95,31.57-33.37M657,514.03c7.45,12.92,11.42,25.65,10.5,40.8-8.14-11.97-10.69-25.18-10.5-40.8M659.63,551.13c-9.1-6-18.18-11.99-27.28-17.98-.26.26-.53.52-.78.77,6.39,8.46,12.79,16.92,18.71,24.77-10.18-1.13-20.41-2.6-30.77-3.34-10.28-.73-20.7-.73-31.23-.43,19.66,5.61,36.86,17.48,58.92,18.12-10.57,5.45-21.13,10.91-31.7,16.37.05.18.1.38.16.58.02.17.02.34.04.52l35-6.35c-18.82,14.12-27.45,35.41-41.49,52.7,16.5-14.56,36.62-24.68,50.34-43.27-1.37,11.12-2.74,22.24-4.11,33.36.34.04.68.1,1.02.15,4.78-10.74,9.57-21.48,14.36-32.22,1.3,21.56,14.37,37.46,21.29,56.22-2.81-20.07.65-41.58-8.59-60.62,9.09,5.98,18.18,11.98,27.28,17.97.26-.26.52-.51.78-.77-6.4-8.46-12.79-16.92-18.71-24.76,10.18,1.13,20.41,2.59,30.75,3.33,10.3.73,20.71.73,31.25.42-19.66-5.6-36.85-17.46-58.92-18.11,10.56-5.47,21.13-10.91,31.7-16.37-.05-.19-.1-.39-.16-.58h0c-.01-.18-.03-.35-.04-.52l-34.99,6.35c18.82-14.12,27.45-35.41,41.48-52.7-16.49,14.55-36.62,24.69-50.32,43.28,1.36-11.12,2.73-22.24,4.11-33.36-.34-.06-.68-.1-1.02-.16-4.78,10.74-9.57,21.48-14.36,32.21-1.31-21.56-14.37-37.46-21.29-56.21,2.81,20.07-.66,41.58,8.59,60.62M435.31,492.2c-14.44,13.24-28.66,26.72-42.97,40.09-17.85,16.69-23.01,37.14-18.06,60.62,7.6,35.97,15.12,71.96,22.83,107.9,1.75,8.19,4.12,16.24,6.22,24.35.64-.1,1.29-.22,1.94-.32,0-1.56.26-3.19-.04-4.7-8.97-44.26-18.01-88.52-27.01-132.78-3.08-15.15-.42-29.07,9.04-41.48,14.97-19.67,33.16-36.12,52.09-51.82,2.21-1.83,4.28-3.82,6.43-5.74-.43-.62-.87-1.24-1.29-1.87-3.08,1.89-6.57,3.35-9.18,5.75M524.15,934.45c.26-.12.53-.25.79-.38.84-.42,2.07-.06,3.37-.06.09.46.18.9.28,1.35-1.48-.3-2.96-.61-4.44-.92M621,938.12c6.25-6.51,14.54-11.44,22.67-15.61,5.51-2.83,12.25-3.47,18.55-4.48,3.85-.62,5.11,1.57,3.09,5.14-2.52,4.44-5.04,8.9-7.56,13.36.07.11.14.23.2.34-13.58,2.37-27.33,3.92-41.21,4.67,1.45-.87,2.87-1.99,4.25-3.43M460.88,914.54c-4.36-1.84-8.66-3.79-12.93-5.8.66-.57,1.32-1.13,1.95-1.71,2.84-2.59,4.8-6.29,7.89-8.43,14.83-10.35,32.21-14.69,49.49-21.29.77,3.09,1.49,5.29,1.86,7.55,1.82,11.25,3.41,22.55,5.35,33.78,1.43,8.27,3.52,9.47,11.89,8.75,2.67-.23,5.5.29,8.13.93,9.4,2.29,18.26,2.11,26.29-4.3,8.58-6.85,17.3-13.52,26.02-20.19,1.5-1.15,3.99-3.13,4.78-2.65,4.54,2.71,7.74-.58,11.39-1.84,8-2.76,15.69-3.23,23.76,3.01-13.69,11.02-27.38,21.28-31.16,39.72-11.92-.06-23.74-.7-35.45-1.94,3.34-5.46,6.75-11.06,10.72-17.55-7.12,4.82-11.48,10.03-12.19,17.4-6.82-.74-13.6-1.69-20.35-2.83-.71-6.1-2.08-6.32-9.33-6.32-3.45,0-6.91-.27-10.32.06-4.83.46-6.99-1.35-7.57-6.27-1.26-10.45-2.97-20.84-4.59-31.24-.54-3.44-1.39-6.84-2.26-11.04-15.32,6.27-29.47,11.88-43.44,17.92-2.23.97-3.65,3.82-5.44,5.8l1.69,1.9c13.71-6.74,27.41-13.48,42.53-20.92-.51,4.38-.63,6.89-1.12,9.34-1.85,9.49-3.62,19-5.81,28.41-.1.47-.18.9-.25,1.33-10.64-3.34-21.16-7.2-31.52-11.58M457.73,867.64c8.42-2.47,16.86-4.9,25.22-7.53,4.28-1.35,6.37-4.44,7.15-8.99,2.22-12.92,4.81-25.77,7.28-38.64.34-1.8.78-3.57,1.5-6.78,1.07,2.14,1.8,2.89,1.73,3.55-1.45,13.22-1.92,26.67-4.84,39.55-2.28,10.08-10.03,16.95-20.63,19.27-7.86,1.73-15.83,2.97-25.11,4.69,1.4-4.09,2.44-7.1,3.95-11.46,1.21,3.04,1.82,4.56,2.4,6,.47.13.87.36,1.2.36.05,0,.1,0,.15-.02M448.39,843.5c3.37-16.41,6.79-32.83,10-49.27.42-2.19.3-4.81-.52-6.86-3.92-9.75-7.81-19.55-12.43-28.97-2.41-4.91-1.96-7.35,3.24-9.21,8.9-3.19,17.61-6.89,26.56-9.92,1.84-.62,5.79.15,6.37,1.39,6.73,14.59,13.46,29.21,19.13,44.23,2,5.3,1.08,11.7,1.58,18.73-12.37-2.32-22.88-4.29-33.67-6.32-1.45,3.56-2.69,6.61-4.15,10.2-1.51-1.38-2.5-2.28-2.63-2.39-4.83,22.76-9.75,45.87-15.08,70.98-17.56-7.27-33.86-13.17-49.36-20.76-10.03-4.91-16.28-14.19-20.32-24.93-5.9-15.66-12.53-31.05-18.64-46.64-1.2-3.06-1.51-6.46-2.23-9.71.66-.3,1.32-.6,1.98-.91,1.23,1.9,2.8,3.66,3.63,5.71,6.04,15.17,12.15,30.3,17.83,45.59,6.09,16.36,17.01,27.55,33.54,33.3,9.69,3.36,19.31,6.93,29.94,10.75,1.85-8.79,3.58-16.89,5.25-25M549.9,767.88c-10.55-7.28-19.97-16.19-29.82-24.46-.99-.83-1.45-2.28-3.15-5.11,40.11,5.48,79.87,2.87,117.11,21.39-10.77,10.58-22.22,17.33-36.15,20.14-3.68.74-7.28,1.08-10.78,1.08-13.59,0-25.87-5.23-37.21-13.03M730.12,748.3c9.68-4.03,18.66-7.77,28.95-12.06-2.39,9.1-9.74,16.34-18.1,16.34-3.53,0-7.25-1.29-10.85-4.28M789.23,785.69c.6-2.18.9-4.51,1.88-6.51,4.99-10.21,10.26-20.29,15.24-30.51,5.51-11.29,5.46-11.52-3.35-20.64-3.34-3.45-4.76-6.54-.37-10.23,7.8-6.53,10.24-5.9,12.32,3.9,2.03,9.56.62,18.98-3.51,27.66-5.61,11.81-11.92,23.28-18.02,34.85-.49.92-1.76,1.45-2.67,2.17-.5-.24-1.01-.47-1.51-.7M415.5,828.6c-12.64-4.94-20.15-14.02-24.65-26.99-17.78-51.3-36.22-102.38-54.38-153.56-.9-2.52-1.41-5.17-2.1-7.77.57-.23,1.16-.46,1.74-.7,2.09,4.55,4.52,8.97,6.22,13.67,13.02,35.69,25.95,71.41,38.79,107.17,4.2,11.72,8.23,23.51,12.02,35.37,4.3,13.43,12.5,23.29,25.21,29.48,2.28,1.11,4.27,2.88,6.38,4.34-.33.66-.64,1.31-.96,1.97-2.76-.98-5.55-1.9-8.28-2.97M345.5,719.28c-22.36-8.1-38.63-23.47-48.41-44.77-6.16-13.43-2.36-27.06,5.17-39.37,4.86-7.95,11.41-14.27,20.26-19.61,2.3,6.65,4.56,12.37,6.24,18.25,3.46,12.15,7.15,24.28,9.69,36.63,1.5,7.31-.69,8.4-7.77,6.14-11.55-3.71-19.21-11.04-22.13-23.01-.24-.96-.87-1.83-1.87-3.87-3.17,11.3-.4,20.3,5.55,28.22,5.8,7.73,13.6,12.98,23.3,15.15,14.25,3.18,20.82,11.27,21.75,27.64-4.06-.44-8.21-.12-11.77-1.42M966.85,526.43c3.37.13,6.19,1.07,8.44,2.83,2.58,2.02,4.38,4.7,5.41,8.05,1.03,3.35,1.21,7.27.55,11.75-.66,4.48-2.22,9.13-4.67,13.95l-4.54,11.12c-.72-16.08-2.46-32-5.2-47.7M942.97,445.51c-2.77-6.55-5.73-12.99-8.85-19.35,6.62-1.79,11.59-.54,14.92,3.8,3.67,4.8,4.68,12.61,3,23.42-.07,1.55-.18,3.19-.33,4.92-.2,1.61-.4,3.31-.59,5.14-.09.81-.17,1.66-.22,2.52-2.45-6.86-5.07-13.68-7.93-20.44M120.97,422.14l14.4-17.15,110.09,38.17c-.75,1.26-1.11,2.55-1.11,3.84,0,1.3.15,2.45.41,3.45.22,1.14.65,2.28,1.32,3.42-.47-2.59.15-4.81,1.85-6.66.87-.76,1.82-1.5,2.83-2.21l1.5-.81c-.18.44-.38.88-.57,1.32-2.7,6.4-5.2,12.84-7.53,19.34l-123.19-42.71ZM755.09,319.87c-9.38-5.23-21.32-5.05-28.96-13.73,16.88,2.75,32.73,8.26,48.6,13.7-.12,1-.24,2-.35,3-7.17,1.18-14.34,2.36-22.65,3.72,1.44-2.87,2.33-4.62,3.37-6.68M335.85,310.93c.38-3.24,1.76-6.21,4.15-8.87,2.39-2.66,5.66-4.88,9.83-6.64,4.17-1.76,8.96-2.84,14.34-3.26,1.52-.29,3.14-.57,4.86-.84,1.23-.14,2.55-.3,3.92-.47-12.11,9.06-23.7,18.89-34.74,29.44-1.93-3.18-2.73-6.3-2.37-9.36M301.01,505.92c-2.33-1.61-3.99-4.62-5.08-7.39-.58-1.51.42-3.75.98-5.59,9.34-30.41,19.02-60.73,27.94-91.27,2.62-8.96,7.53-14.55,15.93-17.9,30.14-12.03,60.22-24.22,90.34-36.28,48.49-19.41,97.04-38.68,145.48-58.22,11.7-4.73,23.67-7.36,35.9-4.18,20.79,5.44,41.36,11.7,61.97,17.81,2.97.88,5.61,2.89,9.73,5.1-3.9,1.68-5.82,2.59-7.81,3.34-28.93,11-57.89,21.88-86.77,32.98-63.1,24.24-124.76,51.64-183.65,84.9-18.22,10.29-35.53,22.2-53.25,33.38.36.6.7,1.21,1.07,1.8,2.02-.98,4.1-1.88,6.06-2.97,22.74-12.66,45.4-25.49,68.22-38.01,35.06-19.22,69.76-39.18,107.51-52.94,2.41-.88,5-1.27,7.5-1.88.25.63,58.28-25.58,58.84-25.85,3.45-1.69,76.53-29.94,96.31-31.43,13.5-1.01,49.1,5.42,40.7,15.23-12.12,14.14-80.78,37.17-145.32,70.84-44.27,23.11-87.82,47.38-129.42,75.06-2.9,1.93-5.41,4.44-8.1,6.69.37.42.73.83,1.1,1.25,1.82-1.11,3.67-2.15,5.45-3.32,87.61-58.25,181.54-104.27,279.06-143.1,25.73-10.26,51.9-8.93,76.41,5.55,11.33,6.69,14.9,15.1,12.51,27.75-4.67,24.72-9.28,49.45-13.95,74.17-2.91,15.43-5.72,30.87-8.99,46.22-.49,2.27-3.16,4.08-4.82,6.11-.88-2.34-1.96-4.65-2.54-7.07-.33-1.39.01-3.01.3-4.48,7.01-36.31,14.13-72.61,21.02-108.95,1.48-7.81,3.34-16.38-3.28-22.65-12.88-12.19-28.43-19.23-45.98-13.61-19.38,6.19-38.9,13.08-56.78,22.63-60.68,32.45-120.58,66.35-180.95,99.39-44.65,24.44-85.99,53.2-121.36,90.08-15.37,16.03-21.58,34.6-16.95,56.74,4.44,21.26,8.18,42.64,12.27,63.97,1.19,6.19,2.54,12.34,3.75,18.11,6.61-.44,11.95-.94,17.3-1.11,29.76-1.02,59.47-1.11,88.3,7.92,19.06,5.97,38.01,12.33,56.95,18.66,45.77,15.28,92.29,21.82,140.42,13.48,32.37-5.61,62.68-16.58,91.4-32.27,2.44-1.34,4.51-3.34,6.76-5.04-.36-.41-.72-.82-1.09-1.23-2.28.52-4.55,1.03-6.82,1.54-.3-.6-.6-1.21-.91-1.81,5.2-4.38,10.39-8.75,15.59-13.13-8.87,3.18-16.97,7.44-25.1,11.7-11.43,5.98-22.8,12.07-34.36,17.8-1.27.64-2.93.52-4.58.41-.76-.06-1.53-.11-2.25-.09,1.17-1.99,2.14-4.14,3.56-5.93,1.12-1.42,2.78-2.39,4.2-3.55-2.28-.78-4.06-.47-5.74.1-16.65,5.74-33.27,11.58-49.94,17.26-2.04.7-4.34.65-6.51.95-.26-.86-.52-1.72-.79-2.57,5.17-2.52,10.34-5.04,15.51-7.57-19.38,2.9-38.44,6.79-57.56,10.36-2.93.54-6.14-.45-9.23-.73,2.72-1.47,5.29-3.45,8.21-4.28,6.6-1.9,13.37-3.23,20.07-4.78-.12-.6-.23-1.19-.35-1.79-6.77.52-13.54,1.05-20.31,1.58-.15-.62-.3-1.24-.46-1.86,19.93-9.92,41.69-16.52,58.78-31.6-1.88.32-3.56,1.02-5.12,1.94-23.34,13.76-48.57,22.07-75.4,24.91-21.17,2.23-42.48,3.16-63.71,4.92-15.69,1.3-19.5-.92-25.33-15.57-10.64-26.77-21.31-53.54-32.03-80.27-1.06-2.63-2.63-5.04-3.97-7.55-.58.26-1.17.52-1.75.77,8.72,25.09,17.43,50.18,26.14,75.27-.69.33-1.39.65-2.07.98-6.48-2.35-5.15-10.93-11.23-15.33,1.15,5.15,2.03,9.14,2.92,13.13l-2-.99c-2.07,1.71-4.36,3.2-6.13,5.16-1.4,1.56-2.35,3.63-3.15,5.6-2.17,5.37-5.22,5.47-9.26,1.95-1.61-1.42-3.56-2.43-5.27-3.73-3.76-2.87-7.45-6-12.78.01-3.79-6.48-7.62-11.89-10.27-17.84-3.58-8.03-6.48-16.39-9.24-24.76-6.77-20.59-13.21-41.3-19.96-61.9-1.71-5.24.32-7.1,5.18-8.54,20.2-5.98,40.3-12.31,60.4-18.61,1.97-.62,3.72-1.98,5.56-3l-.9-2.04c-22.38,8.8-45.06,14.94-71.53,8.62,8.89-7.97,15.77-15.8,24.16-21.37,46.78-31.07,93.3-62.62,141.15-91.97,33.13-20.33,68.24-37.43,102.5-55.89,13.81-7.44,27.71-14.76,41.66-21.93,8.08-4.16,15.49-3.54,22.46,3.11,5.42,5.18,11.63,9.55,17.53,14.23,7.95,6.3,7.93,8.54-.67,14.15-33.35,21.74-66.75,43.4-100.12,65.12-6.8,4.42-13.51,8.96-20.27,13.44l1,1.82c7.92-3.97,15.83-7.98,23.77-11.91,8.09-4,16.21-7.97,24.35-11.89,7.79-3.76,15.62-7.44,23.44-11.16.54.92,1.08,1.83,1.63,2.76-6.74,5.16-13.46,10.32-20.2,15.48.3.5.6,1,.9,1.51,5.39-2.7,10.78-5.39,16.17-8.1.28.5.55,1,.82,1.5-.71,1.53-1.42,3.04-2.2,4.7,1.46.88,2.78,1.67,4.67,2.83-7.57,5.37-14.63,10.4-21.7,15.42.39.57.78,1.15,1.18,1.71,5.07-2.65,10.19-5.23,15.2-7.98,4.66-2.54,9.24-1.52,12.48,1.75,1.74,1.75,1.82,5.68,1.73,8.6-.41,11.8-2.67,23.75-1.47,35.35,2.59,25.01,6.43,49.91,10.67,74.71,2.73,16.05,2.31,30.85-9.31,43.58-1.04,1.14-1.74,2.59-3.34,5.04,15-9.16,21.18-25.03,17.6-41.5-2.09-9.65-3.92-19.38-5.26-29.15-1.59-11.47-2.41-22.99,9.29-30.57.18-.11.02-.73.02-1.38-.9-.31-1.94-.58-2.89-1.01-.83-.38-1.59-.92-3.08-1.81,19.74-9.12,39.75-6.66,59.67-6.44-2.05-1.48-4.13-2.22-6.25-2.41-14.79-1.35-29.62-2.33-44.37-4.04-3.13-.36-8.05-2.79-8.48-4.99-.65-3.28,1.06-8.01,3.44-10.61,2.07-2.28,6.43-3.39,9.79-3.44,39.3-.55,73.22,13.24,102.22,39.39,16.98,15.3,22.29,34.51,16.07,56.25-6.69,23.43-18.68,44.41-33.73,63.43-30.37,38.38-70.24,62.8-116.56,77.21-8.8,2.74-18,4.13-26.91,6.54-1.92.52-4.23,2.44-4.79,4.22-.41,1.29,1.38,3.92,2.88,5.04,3.95,2.95,8.09,5.76,12.48,7.99,12.49,6.36,20.47,4.43,29.64-6.16,4.49-5.18,9.45-9.99,14.4-14.76,1.42-1.35,3.56-1.95,5.37-2.89.66,2.12,1.83,4.22,1.89,6.36.55,18.75-6.21,35.84-12.34,53.06-2.23,6.27-4.3,12.59-12.63,13.76-.42.84-.86,1.69-1.28,2.55,3.47,1.95,6.93,3.89,10.4,5.84-2.16,1.84-3.16,2.33-4.13,2.28-23.64-1.13-47.29-2.32-70.93-3.51-3.24-.16-5.88-.8-6.01-5.04-.14-4.32,1.22-7.11,5.79-7.71,3.61-.48,7.21-.97,12.66-1.7-5.08-2.68-8.28-4.36-11.57-6.11,5.83-8.48,10.66-10.01,19.21-6.5,8.26,3.4,16.47,6.92,24.7,10.39.09-1.56-.26-2.38-.87-2.74-7.98-4.68-15.86-9.57-24.09-13.76-2.35-1.19-6.1-1.24-8.58-.24-9.81,3.96-17.02,10.67-20,21.28-3.69,13.19,5.07,25.75,18.78,26.24,6.21.22,12.47-.34,18.68-.78,9.05-.63,18.08-1.45,27.13-2.2l1.12,2.38c-4.32,4.56-8.19,9.69-13.09,13.48-3.13,2.42-7.93,4.3-11.73,3.92-8.09-.82-11.41,3.39-14.87,9.52-2.52,4.46-6.26,8.9-10.56,11.56-9.52,5.88-11.39,4.7-12.71-6.29-.6-5.07-2.54-8.67-7.95-9.4-5.17-.69-9.12,1.66-10.86,6.27-1.48,3.92-1.91,8.3-2.41,12.53-1.42,12.02-1.34,12.02-13.64,13.28-.86.09-1.73.11-2.58.22-7.81,1-15.61,2.03-23.42,3.03-.04.6-.09,1.19-.13,1.79,1.34.54,2.63,1.21,4.01,1.56,5.95,1.49,8.62,5.25,8.13,11.34-.11,1.28-.04,2.59-.2,3.86-.57,4.35.74,6.57,5.62,5.7,7.39-1.33,14.86-2.28,22.25-3.65,12.63-2.33,20.34-9.01,21.28-22.76.57-8.21,4.01-9.47,11.2-5.48,6.87,3.82,8.83,2.76,13.51-3.95,5.61-8.06,11.68-15.92,18.39-23.08,6.6-7.04,14.58-12.77,21.35-19.67,7.73-7.88,16.56-9.12,25.97-4.91,14.68,6.58,28.99,13.93,43.47,20.93,1.71.82,4.32,2.67,5.07,2.11,2.62-1.98,5.01-1.95,7.27-1.25-29.24,26.5-62.38,47.68-98.77,63.07-12.78,5.41-25.8,10.02-39.02,13.84,4.2-1.35,8.19-2.63,12.16-3.94,7.87-2.59,7.86-2.68,5.18-10.32-1.53-4.36-2.98-8.75-4.46-13.12.64-.48,1.28-.97,1.93-1.46,5.66,4.13,11.35,8.21,16.95,12.41,3.17,2.37,6.14,3.64,10.08-1.03-14.85-9.3-29.26-18.33-44.9-28.13-3.39,16.71-6.51,32.07-9.96,49.08-3.32.82-6.64,1.59-9.98,2.31.24-.24.45-.49.6-.77,3.51-6.55,4.09-14.68,6.08-23.04-12.66,2.99-23.35,5.34-33.96,8.03-13.22,3.37-12.45,3.87-12.55-9.89-.07-9.78-4.81-14.91-14.55-15-6.47-.07-12.95.9-19.75,1.43.25-1.83.5-3.8.8-6.03-3.31-.68-6.23-1.33-9.18-1.88-15.34-2.86-31.46-2.76-45.22-11.63-7.58-4.9-14.89-10.23-22.53-15.03-5.52-3.47-9.3-8.35-9.64-14.52-.51-9.34-.55-18.88.72-28.13,2.37-17.15,3.6-33.87-6.15-49.43-.65-1.03-.84-3.58-.33-3.89,1.25-.74,3.28-1.19,4.57-.69,4.04,1.58,7.89,3.65,12.95,6.08-1.35-4.52-2.22-7.37-3.48-11.55,2.82,1.35,4.24,1.81,5.42,2.63,10.06,7.01,20.06,14.12,30.13,21.11,15.73,10.9,32.66,15.64,51.17,8.4,8.32-3.25,16.42-7.38,24.05-12.05,13.96-8.56,27.82-16.89,44.1-20.76,10.88-2.59,21.34-6.94,32-10.51-1.91-1.1-3.56-1.13-5.2-1.09-16.12.32-32.29,1.67-48.33.75-27.05-1.56-54.02-4.64-81.03-6.93-42.68-3.61-85.39-6.88-128.04-10.79-8.76-.81-18.99,1.29-25.34-8.48-.32,2.25-.39,4.11-.06,5.88,4.82,25.57,9.95,51.08,14.39,76.71,1.27,7.34.65,15.02.64,22.56,0,1.09-1.44,2.19-2.21,3.28-1-.9-2.3-1.65-2.92-2.77-.72-1.27-.87-2.86-1.22-4.32-3.88-16.31-7.7-32.64-11.64-48.95-1.82-7.52-3.86-14.99-5.8-22.48-.49.08-.99.17-1.48.25.26,3.94.53,7.88.78,11.81-.53.09-1.07.18-1.6.26-1.1-3.63-2.41-7.21-3.24-10.91-12.15-54.34-24.14-108.74-36.56-163.03-1.06-4.62-4.25-9.3-7.67-12.71-5.93-5.9-12.84-10.8-19.29-16.18-1.47-1.24-2.74-2.73-5.28-5.31,4.24.5,6.54.78,8.85,1.05.11-.36.22-.72.32-1.08-3.09-2.28-6.19-4.56-10.08-7.42,2.66-1,4.08-1.53,6.88-2.58-11.89-6.97-22.73-13.33-35.29-20.69.85,6.08,1.37,9.88,1.91,13.65.5,3.39,1.06,6.78,1.88,12.02-11.81-19.71-4.42-35.46,5.14-51.23-3.35,1.59-5.44,3.94-8,5.58-1.57,1-4.1,2.25-5.64,2.25-.35,0-.66-.07-.89-.22M187.93,293.44l18.96-11.94,92.95,69.89-18.96,11.94-92.95-69.89ZM398.86,269.9c1.08-.19,3.29-.55,6.62-1.09.23-.04.46-.07.68-.1-2.83,1.67-5.64,3.39-8.42,5.14.34-1.27.7-2.58,1.11-3.95M875.86,255.58c-1.85-2.59-1.95-5.25-.31-7.97l37.42-51.22,2.8-3.84,12.18,18.81-68.74,94.07c-.99-1.09-2.11-1.82-3.34-2.19-1.25-.37-2.38-.58-3.43-.63-1.15-.13-2.37-.04-3.66.26,2.62.31,4.56,1.56,5.82,3.72.47,1.06.91,2.18,1.29,3.35l2.3,12.05c-7.9-7.65-16.09-14.93-24.55-21.81,2.71-.66,5.4-1.18,8.06-1.54,2.77-.38,5.26-.74,7.47-1.09,2.21-.34,3.53-.81,3.95-1.38l-2.15.02c-1.53.14-2.89-.24-4.11-1.13-1.23-.89-2-2.08-2.34-3.57l-.18-1.21,22.54-30.83c1.08-.99,2.28-1.71,3.59-2.18,1.31-.46,2.68-.44,4.1.06l3.07.9-1.8-2.65ZM712.55,191.77c2.68-2.14,6.08-4.34,10.19-6.59l-9.53,38.54c-1.33-.62-2.63-.9-3.9-.86-1.27.06-2.39.26-3.37.62-1.12.32-2.21.86-3.29,1.63,1.42-.38,2.69-.41,3.79-.06,1.1.34,2.11.78,3.02,1.3.84.8,1.66,1.67,2.47,2.61l4.25,6.67c-8.45-2.83-16.98-5.36-25.6-7.55l9.83-39.74,7.87,6.83c.17-.1,1.6-1.23,4.28-3.39M803.18,277.88l79.84-109.25,12.18,18.79-36.15,49.47c-2.11,1.67-4.41,2.12-6.89,1.38l-2.89-.78,1.63,2.52c1.46,2.14,1.72,4.47.78,6.98l-25.2,34.5c-.99-1.08-2.11-1.82-3.35-2.19-1.24-.37-2.38-.57-3.42-.63-1.14-.13-2.38-.04-3.66.26,2.62.31,4.56,1.56,5.82,3.72.47,1.06.91,2.17,1.3,3.35l1.33,6.96c-6.93-5.29-14.04-10.32-21.31-15.09M705.52,167.59l17.3-69.96,18.35,12.98-17.3,69.96-18.35-12.98ZM556.17,76.51c-2.25,3.04-4.94,5.88-8.08,8.54-3.14,2.67-7.01,4.15-11.6,4.45-3.16.21-5.95-.17-8.4-1.17-2.44-.99-4.41-2.37-5.9-4.15-1.49-1.77-2.53-3.9-3.13-6.38-.6-2.49-.63-5.11-.09-7.89-1.03,3.96-1.14,7.71-.33,11.26.78,2.99,2.45,6,5.04,9.08,2.59,3.07,6.95,5.34,13.1,6.8l3.78,56.62c-.08,3.18-1.59,5.37-4.53,6.57l-2.73,1.26,2.87.89c3.08.81,4.87,2.78,5.37,5.92l2.77,41.55c-1.45-.18-2.75-.03-3.87.47-1.12.5-2.09,1.08-2.91,1.71-.97.65-1.85,1.5-2.65,2.55,1.11-.79,2.27-1.23,3.48-1.31,1.22-.09,2.27.06,3.17.43,1.04.51,2.09,1.08,3.14,1.74l4.86,3.96c-33.78,4.28-66.67,13.13-98.2,26.47-6.88,2.91-13.65,6.05-20.31,9.34.42-1.87.94-3.92,1.53-6.16.78-2.91,1.77-5.74,2.97-8.49,1.22-2.75,2.69-5.3,4.44-7.63,1.74-2.33,3.8-4.18,6.17-5.55-2.75-.27-4.91-1.61-6.48-4.03l-4.82-7.42-11.39-17.55c-1.48-2.81-1.26-5.52.63-8.13l1.95-2.55-3.12.74c-3.08.81-5.64-.1-7.69-2.73l-38.76-59.72c.36-.75.67-1.6.92-2.53.25-.94.46-1.8.63-2.6.17-.79.19-1.67.09-2.63-.86,1.59-2.25,2.75-4.17,3.48-1.72.78-4.12,1.18-7.2,1.19-3.07.02-7.23-.58-12.48-1.8l-.2,20.71c1.03.53,2.06.8,3.1.81,1.04.01,2.04-.03,3-.14,1.16-.07,2.24-.25,3.24-.56l10.57,16.29,55.57,85.6-21.18,4.23c-1.03-.53-1.93-1.4-2.73-2.6l-16.44-25.34c-1.28-2.77-.99-5.36.87-7.76l1.77-2.44-2.94.62c-2.96.72-5.4,0-7.33-2.19l-39.12-60.27c.37-.75.68-1.59.93-2.54.25-.93.46-1.79.63-2.59.17-.79.2-1.67.09-2.63-.86,1.59-2.24,2.75-4.17,3.48-1.72.78-4.12,1.17-7.2,1.19-3.07.02-7.24-.58-12.48-1.8l-.2,20.7c1.03.53,2.06.81,3.1.82,1.04.01,2.04-.04,2.99-.14,1.16-.07,2.24-.26,3.24-.56l35.48,54.65c.75,1.4,1.03,2.89.84,4.46-.17,1.58-.78,3.04-1.79,4.38l-2.25,2.49,3.3-.86c3.53-.92,6.35,0,8.47,2.73l21.96,33.85-21.9,4.7-63.31-97.54-26.33-4.51-1.43-.61-.07.29c-.08.4-.21.74-.37,1.02-.25.68-.67,1.89-1.24,3.63-1.36,3.45-2.7,7.85-4.05,13.18-.49,1.35-.91,2.77-1.23,4.27-.31,1.49-.64,3.03-.98,4.62s-.6,3.23-.81,4.9c-.2,1.67-.39,3.43-.57,5.26-.18,1.83-.28,3.65-.31,5.47-.02,1.82-.02,3.66-.01,5.53.11.96.2,1.89.27,2.79.06.89.2,1.88.39,2.97.22.87.45,1.76.68,2.64.22.89.49,1.82.81,2.83.3,1,.63,1.9.98,2.7.35.81.8,1.63,1.35,2.47l.46.73.12.18.23.36.35.55.47.72.3.06.23.37.36.54c.28.17.62.55,1.01,1.15.35.28.71.57,1.06.86.35.28.75.63,1.18,1.03l1.25.74.41.25c.2.04.32.09.36.15.04.07.16.12.36.15.83.49,1.73.81,2.68.97.96.15,1.89.27,2.81.36,1.75.07,3.49-.3,5.22-1.08,1.56-.5,2.99-1.33,4.28-2.51,2.51-2.48,4.19-5.04,5.06-7.66.49-1.35.8-2.66.92-3.94.1-1.27.09-2.55-.04-3.83,0-.52-.07-1.02-.23-1.53-.15-.5-.22-1.01-.22-1.53-.28-.68-.6-1.58-.99-2.71-.27-.68-.55-1.31-.84-1.89-.3-.58-.56-1.06-.79-1.42.12.44.35.93.7,1.48.36.55.6,1.19.76,1.95.46.73.75,1.57.86,2.52.07.64.16,1.18.28,1.62.11.44.21.98.28,1.62.13,2.32-.24,4.79-1.11,7.41-.5,1.35-1.16,2.63-1.99,3.87-.83,1.23-1.87,2.33-3.12,3.31-1.41,1.26-2.84,2.1-4.28,2.52-1.41.75-3.03,1.03-4.86.84-1.75-.06-3.39-.45-4.89-1.19-.07-.12-.17-.19-.26-.22-.1-.02-.18-.09-.26-.21l-.72-.31c-.07-.12-.39-.34-.94-.68l-1.96-1.81c-.28-.17-.57-.49-.89-.97l-.47-.72-.3-.07-.23-.37-.35-.54-.36-.54-.24-.36-.11-.18-.35-.55c-.42-.92-.82-1.79-1.16-2.59-.36-.79-.65-1.64-.87-2.52-.31-1-.58-1.95-.8-2.82-.24-.89-.42-1.71-.57-2.47-.11-.96-.22-1.91-.33-2.88-.11-.96-.18-1.85-.2-2.7,0-3.95.18-7.5.55-10.65.25-1.71.54-3.39.84-5.04.3-1.66.62-3.27.95-4.87l.45-2.09c.33-1.07.95-1.95,1.88-2.64.93-.68,2.05-.94,3.37-.77l12.13,1.64c3.02.44,5.36,1.93,7.01,4.46l5.76,8.86,23.84,36.74c.97,2.81.55,5.47-1.23,8l-2.24,2.49,3.3-.86c3.04-.59,5.6.06,7.69,1.96l14.21,21.9c-6.74,3.34-11.83,7.08-15.25,11.19-3.42,4.11-5.58,8.29-6.5,12.58-.9,4.27-.82,8.5.27,12.69,1.03,4,2.59,7.6,4.64,10.86-1.37,1.33-2.75,2.66-4.09,4-9.69,9.69-18.76,19.83-27.26,30.38-.04-.46-.08-.9-.1-1.33-.32-4.37-.18-8.86.39-13.46.58-4.6,2.2-8.43,4.86-11.47-2.8.6-5.28.09-7.47-1.56l-.7-.51-23.79-17.9c-1.88-2.3-2.38-4.75-1.51-7.34l.82-2.89-2.55,1.59c-2.25,1.55-4.68,1.8-7.29.72l-52.42-39.4c1.23-4.29,1.64-7.76,1.22-10.43-.44-2.65-1.06-4.75-1.9-6.28-1.06-1.69-2.52-2.98-4.4-3.84,2.07,1.56,3.14,3.26,3.19,5.1.06,1.83-.28,3.48-1,4.92-.87,1.87-2.27,3.61-4.19,5.21l-26.05,16.33c-1.51.84-3.06,1.2-4.61,1.11,2.15,4.32,3.83,8.55,5.03,12.7.84,3.68,1.24,7.58,1.19,11.69-.03,4.12-1.43,8.01-4.19,11.7-1.91,2.53-4.03,4.39-6.37,5.6-2.35,1.21-4.68,1.79-6.99,1.77-2.32-.03-4.61-.63-6.89-1.81-2.27-1.16-4.27-2.85-6.03-5.07,2.33,3.36,5.1,5.9,8.32,7.6,2.76,1.35,6.14,2.06,10.16,2.11,4.01.05,8.59-1.78,13.7-5.49l45.71,34.37c2.04,2.07,2.6,4.56,1.67,7.45l-.83,2.9,2.55-1.6c2.54-1.69,5.08-1.85,7.64-.46l31.73,23.85c-1.48,1.96-2.39,3.96-2.76,6.02-.38,2.06-.45,3.89-.22,5.5.17,1.93.63,3.71,1.37,5.35-.34-1.7-.18-3.28.48-4.76.67-1.48,1.53-2.81,2.6-3.99,1.15-1.29,2.62-2.52,4.4-3.71,1.33-.8,2.75-1.62,4.28-2.46.28-.14.58-.3.87-.44-9.34,14.04-17.72,28.71-25.11,43.96-.8-1.48-1.56-2.95-2.25-4.44-1.18-2.54-2.25-4.81-3.23-6.83-.97-2.02-1.8-3.14-2.48-3.37l.66,2.06c.57,1.42.62,2.84.12,4.26-.5,1.43-1.41,2.52-2.74,3.28l-1.1.53-35.06-12.16c-1.45-.65-2.59-1.66-3.42-3-.81-1.35-1.24-2.87-1.27-4.56l.05-3.41-1.88,2.77c-1.06,1.32-2.33,2.24-3.82,2.79-1.48.55-2.99.64-4.54.25l-61.16-21.21c-.12-4.46-.8-7.89-2.02-10.3-1.22-2.4-2.47-4.2-3.72-5.39-1.53-1.29-3.32-2.06-5.37-2.32,2.45.85,3.98,2.15,4.59,3.87.62,1.74.8,3.4.56,4.99-.25,2.04-1.05,4.13-2.4,6.25l-19.8,23.51c-1.19,1.26-2.54,2.09-4.05,2.47,1.58,1.16,2.95,2.36,4.12,3.6,1.17,1.24,2.42,2.89,3.75,4.96,1.34,2.06,2.61,4.67,3.8,7.82l-19.58,10.34-1.5.39.14.27c.18.37.29.71.33,1.03.22.68.63,1.9,1.25,3.63,1.05,3.57,2.68,7.85,4.89,12.9.44,1.37.99,2.73,1.66,4.11.67,1.37,1.35,2.79,2.06,4.26.71,1.47,1.5,2.91,2.37,4.36.87,1.44,1.8,2.94,2.78,4.5.98,1.56,2.02,3.07,3.12,4.51,1.1,1.45,2.22,2.91,3.39,4.38.68.69,1.32,1.37,1.92,2.03.61.66,1.32,1.37,2.12,2.11.72.55,1.45,1.11,2.17,1.66.71.56,1.51,1.14,2.36,1.74.86.6,1.67,1.11,2.44,1.53.76.42,1.63.79,2.57,1.12l.82.28.2.07.41.14.61.22.82.28.28-.12.4.13.62.21c.32-.03.82.06,1.5.3.46,0,.91.01,1.37.02.46,0,.98.02,1.57.08l1.43-.18.49-.07c.17-.09.31-.12.38-.09.07.02.19,0,.38-.1.95-.12,1.86-.42,2.7-.89.85-.46,1.66-.94,2.44-1.43,1.43-1.03,2.59-2.38,3.47-4.05.92-1.35,1.53-2.89,1.83-4.62.46-3.5.22-6.56-.71-9.15-.44-1.37-1-2.59-1.7-3.67-.69-1.08-1.48-2.08-2.39-3-.31-.41-.68-.77-1.11-1.06-.42-.3-.8-.65-1.11-1.07-.63-.36-1.45-.87-2.44-1.53-.63-.37-1.23-.69-1.83-.98-.58-.27-1.08-.48-1.5-.63.36.28.85.52,1.46.74.62.22,1.21.57,1.79,1.08.82.28,1.56.77,2.23,1.47.45.46.86.83,1.21,1.11.36.27.78.65,1.22,1.1,1.53,1.75,2.75,3.92,3.67,6.53.44,1.37.7,2.79.81,4.27.09,1.48-.05,2.99-.44,4.53-.33,1.85-.95,3.4-1.83,4.62-.65,1.44-1.76,2.66-3.32,3.64-1.42,1.03-2.95,1.71-4.6,2.06-.13-.05-.25-.05-.34,0-.09.05-.2.04-.34,0l-.76.2c-.13-.05-.52-.03-1.16.06l-2.66-.23c-.32.04-.74-.04-1.29-.23l-.81-.28-.28.13-.41-.14-.61-.22-.61-.22-.41-.14-.2-.07-.62-.22c-.9-.46-1.74-.9-2.51-1.32-.77-.42-1.52-.91-2.24-1.46-.85-.6-1.64-1.18-2.36-1.73-.73-.56-1.38-1.08-1.97-1.6-.66-.68-1.34-1.38-2.02-2.07-.67-.7-1.28-1.36-1.81-2-2.43-3.12-4.46-6.03-6.11-8.74-.85-1.51-1.65-3.01-2.43-4.5-.78-1.48-1.53-2.96-2.23-4.43l-.93-1.93c-.4-1.05-.44-2.12-.14-3.24.31-1.11,1.04-1.99,2.18-2.67l10.58-6.15c2.66-1.51,5.41-1.78,8.27-.79l50.96,17.67c2.57,1.35,3.87,3.55,3.88,6.59l.1,3.01,1.94-2.3c1.89-2.38,4.27-3.32,7.13-2.78l45.59,15.8c-8.36,27.8-13.42,56.44-15.13,85.67-1.7-2.04-3.29-4.17-4.71-6.44-1.6-2.55-2.87-5.21-3.82-7.96-.95-2.75-1.32-5.5-1.13-8.22-1.77,2.12-4.09,3.15-6.97,3.08l-45.09-.94c-.7-1.31-1.54-2.33-2.53-3.08-.99-.74-1.98-1.26-2.99-1.57-1.14-.46-2.35-.71-3.66-.73,1.15.6,1.92,1.19,2.35,1.77.41.58.76,1.18,1.03,1.75.28.58.34,1.16.18,1.73l-23.72,40.07-39.26-.82,8.42-20.76,11.65.24c3.74.09,6.75.47,9.03,1.17,2.3.69,4,1.59,5.13,2.69,1.13,1.11,1.83,2.35,2.07,3.72.26,1.37.24,2.78-.08,4.2,1.67-3.99,1.74-7.27.2-9.82-1.52-2.55-3.56-4.99-6.1-7.36-2.54-2.35-5-4.88-7.39-7.6-2.39-2.71-3.54-6.15-3.45-10.33l.06-2.59c-.31,1.15-1.09,2.43-2.35,3.84-1.25,1.42-2.89,2.17-4.91,2.27l-7.98-.17c-1.49-4.2-3.19-7.26-5.09-9.17-1.9-1.91-3.64-3.24-5.2-4-1.85-.76-3.79-.94-5.81-.55,2.59.06,4.44.81,5.55,2.28,1.13,1.47,1.82,2.99,2.07,4.57.39,2.02.27,4.25-.36,6.69l-11.6,28.45c-.6,1.42-1.64,2.7-3.1,3.82,4.28,2.11,8.11,4.49,11.5,7.14,2.83,2.37,5.43,5.3,7.81,8.8,2.38,3.5,3.51,7.49,3.42,11.94-.07,3.31-.7,6.13-1.91,8.48-1.19,2.35-2.78,4.19-4.75,5.51-1.97,1.32-4.18,2.17-6.64,2.55-2.46.38-5.04.18-7.76-.59,3.85,1.38,7.59,1.82,11.19,1.31,3.03-.5,6.19-1.95,9.48-4.33,3.28-2.38,5.93-6.56,7.93-12.56l33,.7c3.02.06,5.42.5,7.2,1.34,1.79.82,3.1,1.69,3.94,2.56,1.13,1.18,1.82,2.42,2.08,3.72.04-2.02-.21-3.67-.76-4.98-.55-1.31-1.18-2.33-1.88-3.07-.7-.88-1.63-1.54-2.76-2.01l22.16-37.51,50.69,1.07-8.63,20.75-24.59-.52c-2.44-.06-4.64-.46-6.56-1.22-1.93-.76-3.45-1.66-4.59-2.68-1.42-1.04-2.54-2.28-3.37-3.74-.06,3.02,1.01,5.4,3.19,7.18,2.19,1.77,4.56,3.69,7.1,5.76,2.55,2.07,4.87,4.53,6.97,7.37,2.09,2.86,2.95,6.87,2.55,12.04-.02,1-.34,2.33-.95,3.96-.61,1.64-1.43,3.25-2.47,4.81-1.05,1.56-2.33,2.86-3.87,3.91-1.53,1.05-3.31,1.55-5.32,1.51,2.88.33,5.54-.04,8.01-1.13,2.04-.97,4.05-2.75,6.05-5.37,1.99-2.63,3.34-6.8,4.04-12.55l19.41.41c-.05,2.59.38,4.8,1.27,6.61.89,1.82,1.9,3.31,3.04,4.49,1.26,1.46,2.67,2.64,4.24,3.54-1.27-1.18-2.06-2.55-2.39-4.15-.32-1.59-.39-3.18-.22-4.76.18-1.71.65-3.58,1.42-5.58l.98-2.12c1.93,44.8,11.68,88.3,29.12,129.51,18.9,44.67,45.94,84.79,80.39,119.23,2.12,2.12,4.26,4.22,6.43,6.28.31,2.09.55,4.2.71,6.31.78,1.32,1.26,4.55,1.16,10.21-.17,10.29-.31,14.79-.38,17.67-.06,2.87,1.38,3.4,1.51,2.35.13-1.05-.52-8.5-.58-16.93-.07-8.42,1.83-13.46,3.53-11.63,1.7,1.83,1.83,12.48,2.15,20.13.33,7.65.27,17.31-.25,19.2-.52,1.9.13,3.15.98,3.53.85.39,1.18-2.15.46-6.86-.72-4.71-.52-18.42-.72-21.63-.19-3.2.53-12.81,2.42-10.91,1.89,1.9,2.41,9.08,5.29,10.13,1.27.47,2.53-1.45,3.77-3.76,2.71,2.23,5.44,4.44,8.21,6.59-.14.4-.27.8-.41,1.18-.48,1.29-1.15,4.6.09,7.46.55,1.24-.42,5.9.97,5.92,1.08.02,1.08-.96.52-2.8-.44-1.4.07-3.93.46-3.73.65.33,1.5,1.29,2.7,3.03,1.95,2.83,1.87,5.82,1.07,9.13-.8,3.3-1.33,8.7,0,12.9,1.32,4.2,1.86,6.9.26,9.9-1.59,2.99,2.13,10.5,4.52,3.9,2.39-6.61-3.73-8.9-2.14-13.4,1.59-4.5,3.19-10.31,1.33-13.91-1.85-3.6-2.33-8.49.17-10.18.44-.3.87-.73,1.27-1.24,3.56,2.58,7.17,5.1,10.82,7.54-4.18,3.76-.47,13.31.39,22.66,1.11,11.97-3.31,21.19,0,29.93,4.73,12.48-.32,12.45-1.35,20.62-1.4,11.25,18.46,9.61,10.36-2.87-7.64-11.77,2.98-18.24-.55-31.23-3.95-14.5-2.49-24.35,5.69-28.47-.02.3-.03.6-.03.91,2.33,1.64,4.19,3.86,3.86,6.28h-1v5.16c-2.22,10.63-4.98,22.16-1.32,29.49,4.48,8.98,1,31.59-.51,43.21-2.51,19.26,23.16,9.89,10.86-3.85-5.92-6.61-6.58-30.99-1.22-41.9,3.04-6.19,4.95-7.57,5.05-15.56-.04-.34-.06-.68-.07-1.04.7-.67,1.41-1.43,2.12-2.31,2.91-3.57,13.53-.46,15.67,11.23,1.56,8.58,1.99,19-2.07,27.48-4.06,8.49,1.89,27.18,2.9,33.17,1.01,6-3.21,12.87-4.24,21.85-1.01,8.99,2.91,16.58,9.73,10.32,3.99-3.67,2.96-17.47-.6-26.45-3.55-8.98,5.36-25.08,3.69-36.2-1.32-8.78-1.15-22.78,1.24-29.11,1.11-2.94,2.63-6.24,4.01-9.46.09.04.19.09.3.13.29.12.59.24.89.37.55,7.7,1.58,15.97,3.46,23.21,5.38,20.75,14.6,11.52,23.06,0,6.39-8.72,12.35-5.11,14.54,16.81-.36,16.54-.63,26.68-.81,34.25-.29,12.67,6.06,14.98,6.63,10.37.32-2.57-.43-13.91-1.21-29.84,2.65-20.86,8.65-31.4,14.18-25.44,4.73,5.09,6.7,25.66,7.87,48.63-.12,17.51-.78,31.82-2.01,36.3-2.31,8.35.58,13.83,4.32,15.56,3.75,1.73,5.19-9.51,2.01-30.26-.24-1.59-.46-3.42-.65-5.44.01.04.04.07.06.1-.02-.53-.06-1.02-.08-1.47-.86-14.13,2.3-56.5,10.67-48.13,8.36,8.36,10.66,40.06,23.34,44.67,12.69,4.61,25.07-44.39,36.89-45.55,11.82-1.15,26.23,16.15,30.56,56.21.47,4.43.86,9.57,1.15,15.22-.47,17.72-.97,31.9-1.15,38.14-.59,19.61-3.46,26.23-1.73,36.32,1.73,10.08,12.39,14.71,9.8-7.49-1.38-11.75-2.43-36.9-3.11-62.17,1.11-23.07,3.55-45.87,8.87-55.18,9.23-16.13,20.75,20.76,38.63,21.32,17.86.58,21.04-36.31,39.48-37.46,10.83-.68,14.5,14.26,15.87,32.67-.33,18.46-1.32,34.64-2.44,42.11-1.73,11.53.29,16.42,3.17,19.59,2.88,3.18,6.34-1.73,3.75-29.97-.54-5.84-.97-13.24-1.3-21.42-.01-5.92-.01-10.41-.01-12.72,0-11.53,3.74-44.1,20.46-44.39,16.73-.28,13.55,29.7,12.4,46.7-1.16,17,3.75,19.02,5.76,17.86,2.02-1.15-.58-18.44-1.43-33.72-.87-15.27,1.43-32.56,6.91-44.09,2.86-6.02,14.61-39.36,11.57-46.36,5.98-3.63,11.85-7.42,17.61-11.38,1.38,2.62,3.1,4.77,4.91,6,5.58,3.77,4.54,14.73.38,22.78-4.16,8.06-.57,21.05,2.99,31.12,3.56,10.07-10.13,15.21-4.77,29.99,5.34,14.77,13.67-2.02,10.1-8.72-3.56-6.73-2.38-12.77.6-22.16,2.97-9.4,1.78-21.48,0-28.88-1.79-7.38-1.98-14.08,2.4-20.42,2.68-3.88,4.59-6.03,6.04-6.77.87-.44,1.99,5.21,1.03,8.34-.87,2.87-1.14,4.8-.41,5.7-.76,4.81-1.66,9.67-2.56,14.39-3.26,17.13,11.6,15.14,7.81.04-1.18-4.67-1.69-16.56-1.4-27.38,1.95-4.72,1.64-9.94.92-13.46.45-3.5,1.06-6.09,1.85-7.08,2.3-2.9,2.27-1.29,2.55.32.17,1.05.49,2.11,1.66,1.9,2.73-.47-1.16-3.08,3.1-7.33.84-.83,1.71-2.06,2.66-4.07,1.03-2.17,1.07-4.27.38-6.16,4.44-4.04,8.79-8.19,13.05-12.45.03-.02.06-.06.08-.08,4.46,4.83,3.8,20.37,4.12,31.39.4,13.36-.25,28.03-1.04,33.26-.78,5.24.13,7.47,1.44,8.91,1.32,1.44,2.88-.78,1.7-13.62-1.18-12.84-1.18-42.43-1.18-47.67s1.71-20.03,9.3-20.16c7.59-.14,6.15,13.48,5.63,21.21-.52,7.73,1.71,8.65,2.62,8.12.92-.52-.26-8.37-.66-15.32-.39-6.94.66-14.79,3.15-20.03,1.24-2.6,6.13-16.45,5.41-20.52,4.22-5.4,8.3-10.91,12.21-16.53.3,1.76-.2,4.04-1.16,5.9-1.5,2.91-.21,7.58,1.08,11.22,1.27,3.62-3.66,5.47-1.72,10.79,1.92,5.32,4.92-.73,3.63-3.15-1.28-2.41-.86-4.59.22-7.97,1.07-3.39.64-7.74,0-10.4-.64-2.66-.71-5.07.87-7.35.97-1.4,1.65-2.18,2.17-2.44.31-.15.71,1.88.38,3.01-.46,1.48-.46,2.27.42,2.26,1.13-.01.34-3.78.78-4.78,1-2.3.46-4.97.07-6.01-.09-.23-.17-.46-.25-.71,12.05-18.47,22.44-38.02,31.11-58.54,18.63-44.03,28.5-90.67,29.4-138.73,1.52,1.47,3.1,3.11,4.73,4.97-.14,0,.54.98,2.04,2.96,1.49,1.98,3.07,4.16,4.72,6.56,1.96,2.82,4.27,6.06,6.98,9.73l34.29-.98c3.02.2,5.09,1.8,6.17,4.79l1.16,2.77,1-2.84c.92-3.05,2.89-4.75,5.89-5.13l71.6-2.27c.46.85,1.02,1.59,1.68,2.22.66.63,1.29,1.22,1.89,1.78.58.55,1.32,1.04,2.2,1.44-.9-1.42-1.17-3.13-.79-5.15.23-1.74,1.14-4,2.71-6.77,1.57-2.79,4.25-6.03,8.03-9.73l-17.58-10.93c-.99.6-1.77,1.31-2.31,2.12-.55.81-1.03,1.65-1.43,2.52-.55.87-.96,1.9-1.21,3.05l-79.37,2.28,7.6-20.94,77.42-2.22c1.87.08,3.68.39,5.42.92,1.45.53,2.94,1.32,4.49,2.35,1.55,1.03,2.84,2.54,3.92,4.52.35-2.6-.4-4.95-2.25-7.06-1.87-2.1-3.98-4.2-6.33-6.29-2.36-2.09-4.55-4.26-6.56-6.51-2.01-2.25-3.05-4.66-3.11-7.25-.1-3.31.39-6.16,1.48-8.58,1.08-2.4,2.57-4.32,4.48-5.73,1.9-1.43,4.07-2.39,6.5-2.89,2.44-.5,5.02-.44,7.77.2-3.92-1.18-7.66-1.43-11.25-.75-3,.66-6.05,2.25-9.14,4.79-3.1,2.54-5.48,6.85-7.18,12.95l-72.25,2.07c-.08-2.59-.61-4.77-1.59-6.54-.99-1.77-2.07-3.21-3.25-4.33-1.34-1.4-2.81-2.51-4.41-3.32,1.33,1.11,2.2,2.46,2.6,4.03.4,1.57.56,3.15.46,4.73-.09,1.73-.4,3.61-.92,5.64-.15,0-.82,1.5-2.03,4.48-1.22,2.99-2.56,6.37-4.03,10.16-1.75,4.22-3.77,9.1-6.06,14.63.14,0,1.5,1.03,4.08,3.12,2.57,2.09,5.35,4.73,8.32,7.97l-36.01,1.03,7.59-21.15,6.56-19.83c1.54-6.38,1.51-12.02-.06-16.93-1.58-4.92-4.11-9.02-7.58-12.3-3.48-3.29-7.44-5.76-11.87-7.43-3.92-1.48-7.68-2.25-11.28-2.33-2.21-12.07-5.02-24.02-8.42-35.81,1.73.68,3.29,1.38,4.69,2.09,3.35,1.72,6.57,3.93,9.66,6.65,3.09,2.71,5.18,6.03,6.25,9.92,1.18-2.7,1.41-5.3.69-7.79-.4-1.54-1.05-2.87-1.99-4-.93-1.13-1.92-2.11-2.98-2.95-1.11-.97-2.4-1.82-3.87-2.52l.65-21.51,109.67-38.7,11.49-25.79-.28-.14c-.36-.18-.66-.37-.89-.6-.6-.39-1.68-1.08-3.24-2.06-3.04-2.13-7-4.47-11.86-7.02-1.21-.79-2.49-1.53-3.86-2.18-1.38-.66-2.8-1.34-4.27-2.05-1.47-.7-2.99-1.34-4.57-1.93-1.58-.59-3.24-1.18-4.97-1.79-1.75-.6-3.5-1.14-5.24-1.58-1.77-.44-3.56-.88-5.39-1.3-.95-.12-1.88-.25-2.76-.39-.9-.15-1.89-.25-2.98-.32-.9,0-1.82.02-2.73.04-.9.01-1.88.06-2.93.12-1.05.06-1.99.16-2.87.31-.86.15-1.77.4-2.71.74l-.82.28-.2.07-.41.15-.61.22-.81.29-.14.27-.41.14-.61.22c-.23.23-.67.47-1.35.71-.36.28-.72.55-1.08.84-.36.28-.79.58-1.29.91l-1,1.03-.33.35c-.09.18-.16.29-.23.31-.07.02-.15.12-.24.31-.67.7-1.19,1.49-1.56,2.39-.37.89-.71,1.77-1.01,2.64-.47,1.69-.54,3.46-.18,5.33.12,1.63.6,3.22,1.45,4.75,1.82,3.02,3.91,5.25,6.25,6.72,1.19.79,2.39,1.4,3.61,1.82,1.21.41,2.45.69,3.73.86.51.12,1.02.17,1.54.14.53-.04,1.04.01,1.54.14.72-.1,1.68-.21,2.86-.33.73-.1,1.4-.23,2.04-.38.63-.14,1.16-.29,1.56-.43-.46,0-.98.12-1.59.33-.62.22-1.31.3-2.09.27-.81.29-1.69.37-2.65.25-.64-.07-1.19-.12-1.64-.11-.46,0-1.01-.02-1.65-.1-2.28-.41-4.59-1.35-6.94-2.81-1.2-.8-2.3-1.74-3.29-2.84-1-1.1-1.83-2.36-2.49-3.81-.89-1.67-1.37-3.25-1.45-4.75-.39-1.54-.28-3.18.33-4.92.47-1.7,1.24-3.19,2.3-4.48.14-.05.23-.11.28-.2.04-.1.13-.17.27-.21l.46-.63c.14-.05.43-.3.88-.76l2.22-1.47c.22-.23.61-.44,1.16-.63l.81-.29.13-.28.41-.14.61-.22.62-.22.41-.15.2-.07.6-.22c1-.2,1.93-.38,2.8-.52.86-.16,1.74-.24,2.65-.26,1.05-.06,2.03-.1,2.94-.12.91-.02,1.75,0,2.52.02.96.12,1.92.24,2.87.36.96.12,1.85.26,2.67.43,3.84.93,7.25,1.94,10.22,3.03,1.6.65,3.17,1.31,4.7,1.99,1.54.68,3.03,1.37,4.51,2.07l1.93.92c.97.59,1.67,1.39,2.12,2.46.45,1.07.44,2.21-.04,3.45l-4.44,11.4c-1.13,2.84-3.12,4.76-5.98,5.77l-49.84,17.59c-1.49.53-2.96.59-4.4.18-1.45-.41-2.7-1.26-3.77-2.56l-2.02-2.49v3.21c0,3.51-1.69,5.85-5.08,7.05l-23.8,8.4c-2.49-7.05-5.6-12.51-9.33-16.39-3.73-3.87-7.69-6.56-11.87-8.05-4.19-1.5-8.22-1.9-12.1-1.22-2.04.36-3.93.94-5.69,1.73-4.48-8.88-9.29-17.56-14.44-26.03l107.48-74.67c.94-.65,2-.95,3.18-.89,1.18.05,2.21.47,3.11,1.25-.48-1.95-.68-4.56-.6-7.86.08-3.29.25-6.51.51-9.67.36-3.75.82-7.76,1.39-12l.57-1.44-.3-.06c-.4-.07-.74-.18-1.02-.34-.68-.23-1.9-.6-3.67-1.13-3.49-1.25-7.93-2.46-13.3-3.63-1.37-.46-2.8-.82-4.3-1.08-1.51-.28-3.06-.55-4.65-.84-1.61-.29-3.24-.5-4.92-.65-1.68-.15-3.44-.28-5.28-.41-1.84-.12-3.66-.17-5.47-.13-1.82.03-3.67.09-5.53.17l-5.73.83c-.87.25-1.75.51-2.61.76-.89.25-1.82.55-2.81.89-.99.34-1.88.69-2.67,1.08-.79.37-1.61.84-2.43,1.42l-.71.49-.18.12-.36.25-.53.37-.71.49-.05.3-.36.25-.53.36c-.27.37-.65.71-1.11,1.05-.27.36-.54.72-.82,1.09-.27.36-.6.77-.99,1.21l-.7,1.27-.41.54-.1.6c-.46.85-.76,1.75-.88,2.71-.12.97-.22,1.9-.28,2.82,0,1.76.41,3.48,1.24,5.18.55,1.54,1.43,2.95,2.65,4.2,2.56,2.43,5.17,4.03,7.81,4.82,1.36.45,2.69.71,3.96.79,1.27.07,2.55.02,3.83-.17.52,0,1.02-.1,1.52-.26.49-.17,1-.26,1.52-.27.67-.29,1.56-.65,2.67-1.07.67-.29,1.3-.59,1.87-.9.57-.31,1.03-.59,1.38-.84-.44.13-.92.38-1.44.75-.54.37-1.18.64-1.94.81-.7.49-1.54.81-2.49.95-.64.09-1.17.2-1.61.33-.44.12-.98.24-1.61.33-2.32.2-4.8-.09-7.45-.87-1.36-.46-2.68-1.07-3.92-1.87-1.26-.79-2.39-1.8-3.41-3.01-1.31-1.37-2.19-2.78-2.65-4.2-.79-1.38-1.12-2.99-.99-4.83,0-1.75.36-3.4,1.04-4.93.12-.08.18-.17.21-.27.01-.1.09-.19.2-.28l.3-.72c.11-.09.33-.41.64-.98l1.75-2c.15-.28.46-.58.94-.92l.71-.49.06-.3.35-.25.53-.36.53-.38.36-.25.17-.12.54-.37c.9-.46,1.75-.88,2.55-1.25.79-.37,1.62-.69,2.49-.95.98-.33,1.91-.63,2.79-.89.87-.26,1.68-.47,2.44-.65.96-.14,1.88-.26,2.78-.35.89-.1,1.82-.22,2.78-.35,3.95-.12,7.5-.05,10.66.22,1.71.2,3.4.43,5.06.67,1.66.25,3.29.52,4.9.81l2.09.38c1.09.3,1.98.9,2.7,1.8.72.9,1.02,2.01.88,3.34l-1.27,12.17c-.34,3.04-1.75,5.42-4.22,7.15l-44.48,30.9c-2.5,1.2-4.98.9-7.44-.88l-2.49-1.69.71,2.92c.81,2.94.23,5.36-1.77,7.27l-43.33,30.11c-13.11-19.18-28.02-37.16-44.68-53.83-.21-.21-.42-.41-.63-.62,1.21-.59,2.57-1.09,4.11-1.47,2.83-.7,5.63-1.23,8.4-1.61,2.77-.38,5.26-.74,7.48-1.08,2.2-.34,3.52-.81,3.95-1.38l-2.16.02c-1.53.14-2.89-.25-4.11-1.13-1.22-.89-1.99-2.09-2.33-3.58l-.19-1.2,23.17-31.71c2.11-1.66,4.4-2.12,6.89-1.38l3.07.92-1.8-2.65c-1.47-2.15-1.73-4.48-.78-6.99l38.82-53.13c4.3,1.18,7.78,1.54,10.44,1.07,2.65-.46,4.73-1.13,6.25-1.97,1.69-1.09,2.95-2.57,3.79-4.45-1.53,2.09-3.21,3.18-5.05,3.25-1.84.09-3.48-.22-4.93-.93-1.88-.84-3.64-2.21-5.27-4.11l-16.68-25.82c-.86-1.51-1.25-3.05-1.18-4.6-.2.04-1.46.84-3.79,2.44-2.33,1.59-6.11,2.79-11.33,3.61l-16.45-25.39c-.85-1.51-1.24-3.05-1.18-4.6-1.56,1.17-3.12,2.14-4.65,2.88-1.53.76-3.47,1.47-5.84,2.15-2.36.68-5.23,1.11-8.59,1.34l-4.16-21.74.06-1.56-.3.05c-.41.06-.77.07-1.09.01-.71.01-1.99.06-3.83.14-3.72-.04-8.3.26-13.76.9-1.44.02-2.91.15-4.42.38-1.5.23-3.07.48-4.67.73-1.62.26-3.24.58-4.87.99-1.64.41-3.34.86-5.12,1.34-1.78.49-3.52,1.04-5.22,1.66-1.71.62-3.43,1.28-5.18,1.96-.86.44-1.69.85-2.51,1.24-.82.38-1.69.86-2.64,1.41-.74.53-1.48,1.05-2.22,1.58-.74.52-1.53,1.11-2.35,1.75-.83.64-1.55,1.27-2.17,1.88-.63.61-1.24,1.32-1.83,2.14l-.51.7-.14.17-.25.34-.38.52-.51.69.05.31-.26.34-.38.52c-.06.32-.3.77-.72,1.35-.14.42-.28.86-.42,1.3-.14.43-.31.93-.54,1.47l-.25,1.43-.07.47c.03.21.02.34-.02.39-.04.06-.05.2-.02.39-.17.95-.14,1.9.06,2.85.2.95.41,1.87.66,2.76.56,1.66,1.51,3.15,2.86,4.49,1.02,1.28,2.31,2.32,3.88,3.11,3.21,1.46,6.2,2.12,8.96,1.99,1.43-.02,2.77-.19,4.01-.54,1.23-.35,2.42-.82,3.56-1.41.49-.18.94-.42,1.35-.75.41-.32.86-.57,1.35-.75.54-.49,1.27-1.12,2.18-1.88.54-.49,1.03-.98,1.48-1.46.43-.49.78-.89,1.03-1.24-.37.26-.75.65-1.13,1.18-.39.52-.9.99-1.56,1.4-.51.7-1.19,1.27-2.05,1.71-.57.29-1.05.57-1.42.84-.37.26-.84.54-1.42.83-2.11.95-4.56,1.48-7.32,1.61-1.43.01-2.88-.15-4.32-.49-1.43-.34-2.84-.92-4.2-1.74-1.68-.87-2.98-1.91-3.88-3.1-1.19-1.05-2.03-2.46-2.51-4.24-.57-1.66-.78-3.32-.62-4.99.08-.12.12-.23.1-.33-.02-.1.02-.21.1-.33l.04-.78c.08-.11.17-.49.28-1.12l1-2.47c.05-.31.25-.71.59-1.17l.51-.7-.05-.3.25-.35.38-.52.38-.52.26-.34.13-.17.38-.53c.7-.73,1.37-1.4,2-2,.62-.62,1.31-1.19,2.05-1.72.83-.65,1.61-1.23,2.35-1.75.74-.53,1.43-1,2.09-1.4.86-.44,1.72-.89,2.57-1.33.86-.44,1.67-.83,2.44-1.15,3.7-1.4,7.07-2.5,10.15-3.28,1.69-.36,3.36-.7,5.01-1,1.65-.31,3.27-.59,4.89-.84l2.11-.33c1.12-.07,2.17.2,3.14.82.97.62,1.61,1.58,1.91,2.86l2.79,11.92c.66,2.99.11,5.7-1.67,8.14l-6.24,8.53-25.97,35.54c-2.11,1.67-4.4,2.12-6.88,1.38l-2.91-.78,1.63,2.52c1.47,2.15,1.72,4.48.78,6.98l-32.47,44.43c-13.84-8.08-28.21-15.3-43.1-21.61-5.75-2.43-11.54-4.71-17.37-6.85.23-.18.44-.37.68-.54,2.35-1.72,4.75-3.31,7.18-4.78,2.44-1.47,4.61-2.78,6.54-3.95,1.91-1.15,2.95-2.07,3.13-2.78l-2.04,1.05c-1.32.56-2.71.66-4.18.3-1.47-.36-2.64-1.18-3.52-2.42l-.63-1.05,8.96-36.23c.86-3.49,3.11-5.38,6.73-5.68l2.99-.37-2.46-1.72c-1.4-.94-2.39-2.14-2.99-3.63-.6-1.48-.71-2.99-.33-4.52l15.28-61.79c4.42-.54,7.78-1.52,10.06-2.95,2.28-1.44,3.98-2.92,5.1-4.42,1.15-1.63,1.75-3.48,1.82-5.55-.62,2.51-1.77,4.15-3.44,4.92-1.67.78-3.31,1.11-4.91,1.01-2.06-.06-4.21-.67-6.45-1.81l-25.21-17.57c-1.37-1.08-2.31-2.35-2.83-3.81-1.02,1.68-2.08,3.15-3.21,4.43-1.13,1.28-2.66,2.68-4.59,4.2-1.93,1.52-4.41,3.02-7.45,4.49l-12.08-18.54-.52-1.47c-.04.14-.13.2-.26.15-.35.22-.68.36-.99.42-.66.28-1.83.81-3.5,1.58-3.46,1.37-7.58,3.38-12.39,6.05-1.35.7-2.68,1.42-3.97,2.13-1.29.72-2.63,1.5-4.02,2.34-1.4.84-2.76,1.76-4.13,2.76-1.35,1-2.77,2.06-4.22,3.17-1.47,1.13-2.87,2.3-4.21,3.52-1.34,1.22-2.69,2.49-4.04,3.79l-3.75,4.4-1.46,2.31c-.49.76-.99,1.61-1.51,2.51-.53.91-.97,1.8-1.33,2.67-.37.87-.67,1.8-.91,2.78l-.15.63-.06.21-.05.21-.05.21-.16.63-.22.84.11.46-.05.21-.15.63c.04.46-.02.97-.15,1.52.03.45.07.94.08,1.46.02.53.06,1.02.09,1.47l.32,1.4.05.69.32.52c.21.94.59,1.81,1.13,2.6.54.81,1.09,1.57,1.65,2.3,1.16,1.32,2.61,2.35,4.36,3.07,1.43.81,3.02,1.27,4.76,1.4,1.61.1,3.18.01,4.73-.27,1.54-.28,2.99-.7,4.32-1.27,1.32-.56,2.49-1.24,3.5-2.03,1-.78,1.93-1.67,2.76-2.65.38-.34.71-.74.97-1.2.25-.45.58-.86.96-1.21.31-.66.75-1.51,1.31-2.57.3-.66.58-1.3.79-1.91.23-.61.39-1.13.5-1.54-.24.38-.44.89-.6,1.51-.16.63-.46,1.26-.9,1.89-.22.84-.63,1.63-1.26,2.35-.41.5-.74.93-.98,1.32-.24.38-.57.82-.99,1.3-.8.84-1.71,1.66-2.71,2.44-1.02.79-2.17,1.4-3.45,1.82-2.96,1.19-5.9,1.66-8.78,1.38-.84-.21-1.64-.41-2.41-.59-.76-.19-1.56-.46-2.36-.81-1.57-.83-2.86-1.89-3.88-3.18-1.15-1.32-1.98-2.79-2.47-4.4.03-.14.02-.24-.03-.33-.06-.09-.06-.2-.03-.34l-.26-.74c.04-.14-.02-.52-.17-1.14v-2.67c-.07-.31-.04-.74.1-1.3l.16-.63-.11-.47.1-.42.16-.63.15-.63.11-.42.05-.21.15-.62c.38-.95.75-1.82,1.1-2.62.34-.81.76-1.59,1.24-2.36l1.47-2.3c.48-.77.97-1.54,1.46-2.31.62-.73,1.24-1.43,1.85-2.1.61-.66,1.23-1.36,1.86-2.09,1.35-1.3,2.68-2.49,3.99-3.58,1.3-1.08,2.68-2.19,4.16-3.31,1.42-.98,2.84-1.92,4.25-2.84,1.41-.9,2.81-1.79,4.21-2.62.35-.21.65-.39.91-.55.26-.15.57-.34.91-.55,1.02-.49,2.08-.63,3.22-.42,1.13.21,2.09.85,2.86,1.93l7.09,9.97c1.75,2.51,2.27,5.23,1.54,8.16l-2.54,10.26-9.54,38.54c-7.05-2.63-13.25-3.79-18.58-3.49-5.34.32-9.87,1.57-13.6,3.76-3.72,2.18-6.74,5.1-9.05,8.76-2.31,3.65-3.95,7.43-4.92,11.34-.55,2.23-.68,4.57-.4,7.01.29,2.44.97,4.76,2.06,6.96,1.1,2.19,2.46,4.12,4.13,5.79,1.66,1.67,3.67,2.79,6.05,3.39-2.52-1.21-4.56-2.83-6.14-4.86-1.48-1.83-2.59-4.19-3.37-7.05-.78-2.86-.62-6.52.49-10.99.97-3.91,2.75-6.91,5.34-9.02,2.59-2.1,5.69-3.23,9.28-3.37,3.59-.15,7.46.7,11.6,2.54,4.14,1.84,8.22,4.81,12.24,8.91l-.1.42-.05.21-11.73,47.42c-24.22-4.85-48.96-7.3-74.1-7.3-11.51,0-22.94.54-34.29,1.56,1.28-1.66,2.59-3.3,3.96-4.86,1.88-2.14,3.59-4.06,5.13-5.74,1.53-1.69,2.29-2.89,2.24-3.61l-1.83,1.63c-1.09,1.08-2.35,1.67-3.77,1.77-1.43.09-2.76-.38-3.99-1.46l-1.13-.79-3.9-58.55,1.39-1.82c.66-.91,1.67-1.55,3.02-1.93,1.34-.38,2.6-.31,3.79.18l9.36,4.12c1.04.52,2.06.62,3.05.34.98-.28,1.82-.87,2.47-1.78l10.24-14.96-1.24.95c-1.64,1.27-3.5,1.46-5.58.58l-10.24-4.51c-1.19-.64-2.51-.77-3.92-.38-1.42.38-2.52,1.18-3.31,2.38l-9.26,13.38-3.9-58.55,21.42,6.57.77,11.63c.25,3.72.13,6.77-.36,9.1-.5,2.34-1.21,4.15-2.12,5.43-.94,1.3-2.1,2.14-3.51,2.51-1.42.38-2.86.48-4.31.29,4.12,1.32,7.42,1.06,9.89-.77,2.47-1.82,4.78-4.1,6.9-6.84,2.12-2.74,4.4-5.4,6.81-8.02,2.42-2.61,5.71-4.06,9.87-4.34l2.8-.18c-1.17-.22-2.55-.87-4.14-2-1.59-1.11-2.52-2.67-2.79-4.68l-.54-7.96c4.06-1.85,6.96-3.82,8.7-5.87,1.72-2.07,2.91-3.92,3.52-5.54.59-1.91.6-3.85.04-5.84.18,2.57-.42,4.49-1.78,5.73-1.35,1.25-2.81,2.07-4.38,2.46-1.98.57-4.2.65-6.68.23l-29.37-9.07c-1.63-.61-2.91-1.53-3.86-2.77-1.87,4.45-3.98,8.48-6.33,12.1"/>
</svg>